<?xml version="1.0" encoding="UTF-8" standalone="no"?>
<svg width="956px" height="1024px" viewBox="0 0 956 1024" version="1.1" xmlns="http://www.w3.org/2000/svg" xmlns:xlink="http://www.w3.org/1999/xlink">
    <!-- Generator: Sketch 3.8.3 (29802) - http://www.bohemiancoding.com/sketch -->
    <title>Alarm Clock</title>
    <desc>Created with Sketch.</desc>
    <defs></defs>
    <g id="Page-1" stroke="none" stroke-width="1" fill="none" fill-rule="evenodd">
        <path d="M479.99104,959.982081 C232.950682,959.982081 32.008959,759.019879 32.008959,512 C32.008959,264.980121 232.971161,64.017919 479.99104,64.017919 C727.010919,64.017919 927.973121,264.980121 927.973121,512 C927.973121,759.019879 727.010919,959.982081 479.99104,959.982081 L479.99104,959.982081 Z M479.99104,96.0064 C250.624215,96.0064 63.99744,282.633175 63.99744,512 C63.99744,741.366825 250.603736,927.9936 479.99104,927.9936 C709.378344,927.9936 895.98464,741.366825 895.98464,512 C895.98464,282.633175 709.357865,96.0064 479.99104,96.0064 L479.99104,96.0064 Z M0,783.984001 L0,750.00904 C0,741.182513 7.167713,734.0148 15.99424,734.0148 C24.820767,734.0148 31.98848,741.141555 31.98848,750.00904 L31.98848,783.984001 C31.98848,898.667414 125.291628,991.970562 239.975041,991.970562 L267.970081,991.970562 C276.796608,991.970562 283.964321,999.138275 283.964321,1007.9648 C283.964321,1016.79133 276.796608,1023.95904 267.970081,1023.95904 L239.975041,1023.95904 C107.638574,1023.97952 0,916.340947 0,783.984001 Z M715.972641,1023.97952 L687.977601,1023.97952 C679.151074,1023.97952 671.983361,1016.81181 671.983361,1007.98528 C671.983361,999.158754 679.151074,991.991041 687.977601,991.991041 L715.972641,991.991041 C830.656054,991.991041 923.959202,898.687893 923.959202,784.00448 L923.959202,750.029519 C923.959202,741.202992 931.126915,734.035279 939.953442,734.035279 C948.779969,734.035279 955.947682,741.202992 955.947682,750.029519 L955.947682,784.00448 C955.947682,916.340947 848.309108,1024 715.952162,1024 L715.972641,1023.97952 Z M479.99104,502.620535 L479.99104,725.782169 C479.99104,734.608696 472.823327,741.776409 463.9968,741.776409 C455.170273,741.776409 448.00256,734.608696 448.00256,725.782169 L448.00256,496.00576 C448.00256,491.74609 449.702332,487.691213 452.671813,484.680773 L609.910963,327.441623 C613.044278,324.308308 617.140114,322.77237 621.23595,322.77237 C625.331786,322.77237 629.427622,324.349267 632.560937,327.441623 C638.807087,333.687773 638.807087,343.824968 632.560937,350.071118 L479.99104,502.641015 L479.99104,502.620535 Z M60.802687,6.409984 L156.809087,134.404864 C162.092716,141.470181 160.659173,151.484501 153.573376,156.809088 C146.528538,162.051758 136.514218,160.659174 131.169152,153.573377 L35.162752,25.578497 C29.879123,18.51318 31.312666,8.49886 38.398463,3.174273 C41.286027,1.023959 44.665092,0 48.003199,0 C52.836286,0 57.669372,2.211752 60.802687,6.409984 L60.802687,6.409984 Z M828.771969,153.614335 C823.426903,160.720611 813.453542,162.092716 806.367745,156.850046 C799.302428,151.545938 797.848406,141.531619 803.132034,134.445822 L899.138434,6.450942 C902.312707,2.25271 907.104835,0.040958 911.937922,0.040958 C915.255549,0.040958 918.655093,1.064917 921.542658,3.23571 C928.607975,8.539818 930.061997,18.554137 924.778369,25.639934 L828.771969,153.593856 L828.771969,153.614335 Z" id="Alarm-Clock" fill="#272636" transform="translate(477.973841, 512.000000) scale(1, -1) translate(-477.973841, -512.000000) "></path>
    </g>
</svg>