<?xml version="1.0" encoding="UTF-8" standalone="no"?>
<svg width="18px" height="18px" viewBox="0 0 18 18" version="1.1" xmlns="http://www.w3.org/2000/svg" xmlns:xlink="http://www.w3.org/1999/xlink">
    <!-- Generator: Sketch 3.8.3 (29802) - http://www.bohemiancoding.com/sketch -->
    <title>Full</title>
    <desc>Created with Sketch.</desc>
    <defs></defs>
    <g id="Page-2" stroke="none" stroke-width="1" fill="none" fill-rule="evenodd">
        <g id="Group-3" transform="translate(-6.000000, -6.000000)" fill="#323232">
            <g id="Full_B">
                <path d="M7,22.2928932 L13.5849161,15.7079771 C13.7806589,15.5122343 14.1033416,15.5175552 14.2928932,15.7071068 C14.4881554,15.9023689 14.4839884,16.2231184 14.2920229,16.4150839 L7.70710678,23 L13.4965773,23 C13.77461,23 14,23.2319336 14,23.5 C14,23.7761424 13.7670975,24 13.4965773,24 L7,24 L7,23.8061362 L7,24 L6.5,24 C6.22385763,24 6,23.7692032 6,23.4995642 L6,16.5004358 C6,16.2240528 6.23193359,16 6.5,16 C6.77614237,16 7,16.2307968 7,16.5004358 L7,22.2928932 Z M22.2928932,7 L15.7079771,13.5849161 C15.5160116,13.7768816 15.5118446,14.0976311 15.7071068,14.2928932 C15.8966584,14.4824448 16.2193411,14.4877657 16.4150839,14.2920229 L23,7.70710678 L23,13.4995642 C23,13.7692032 23.2238576,14 23.5,14 C23.7680664,14 24,13.7759472 24,13.4995642 L24,6.50043583 C24,6.23079681 23.7761424,6 23.5,6 L23,6 L23,6.19386383 L23,6 L16.5034227,6 C16.2329025,6 16,6.22385763 16,6.5 C16,6.76806641 16.22539,7 16.5034227,7 L22.2928932,7 Z" id="Full"></path>
            </g>
        </g>
    </g>
</svg>