<?xml version="1.0" encoding="UTF-8" standalone="no"?>
<svg width="14px" height="12px" viewBox="0 0 14 12" version="1.1" xmlns="http://www.w3.org/2000/svg" xmlns:xlink="http://www.w3.org/1999/xlink">
    <!-- Generator: Sketch 3.8.3 (29802) - http://www.bohemiancoding.com/sketch -->
    <title>Next</title>
    <desc>Created with Sketch.</desc>
    <defs></defs>
    <g id="Page-2" stroke="none" stroke-width="1" fill="none" fill-rule="evenodd">
        <g id="Group" transform="translate(-8.000000, -9.000000)" fill="#323232">
            <g id="Next_B">
                <path d="M20,10.0024733 C20,9.44882258 20.4438648,9 21,9 C21.5522847,9 22,9.45576096 22,10.0024733 L22,19.9975267 C22,20.5511774 21.5561352,21 21,21 C20.4477153,21 20,20.544239 20,19.9975267 L20,10.0024733 Z M8,10.0024733 C8,9.44882258 8.39926147,9.19963074 8.90195036,9.45097518 L19.0980496,14.5490248 C19.5961831,14.7980915 19.6007385,15.1996307 19.0980496,15.4509752 L8.90195036,20.5490248 C8.40381693,20.7980915 8,20.544239 8,19.9975267 L8,10.0024733 Z" id="Next"></path>
            </g>
        </g>
    </g>
</svg>