<?xml version="1.0" encoding="UTF-8" standalone="no"?>
<svg width="18px" height="18px" viewBox="0 0 18 18" version="1.1" xmlns="http://www.w3.org/2000/svg" xmlns:xlink="http://www.w3.org/1999/xlink">
    <!-- Generator: Sketch 3.8.3 (29802) - http://www.bohemiancoding.com/sketch -->
    <title>UnFull</title>
    <desc>Created with Sketch.</desc>
    <defs></defs>
    <g id="Page-2" stroke="none" stroke-width="1" fill="none" fill-rule="evenodd">
        <g id="Group-3" transform="translate(-6.000000, -6.000000)" fill="#323232">
            <g id="UnFull_B">
                <path d="M14,16.7071068 L7.22269574,23.484411 C7.02695292,23.6801539 6.7042702,23.6748329 6.51471863,23.4852814 C6.31945648,23.2900192 6.32362347,22.9692698 6.51558896,22.7773043 L13.2928932,16 L7.50043583,16 C7.22405275,16 7,15.7680664 7,15.5 C7,15.2238576 7.23079681,15 7.50043583,15 L14.4995642,15 C14.7759472,15 15,15.2319336 15,15.5 L15,16 L14.7170823,16 L15,16 L15,22.4965773 C15,22.77461 14.7680664,23 14.5,23 C14.2238576,23 14,22.7670975 14,22.4965773 L14,16.7071068 Z M16.7071068,14 L23.484411,7.22269574 C23.6763765,7.03073025 23.6805435,6.70998077 23.4852814,6.51471863 C23.2957298,6.32516705 22.9730471,6.31984614 22.7773043,6.51558896 L16,13.2928932 L16,7.50342274 C16,7.23290253 15.7761424,7 15.5,7 C15.2319336,7 15,7.22539004 15,7.50342274 L15,14 L15.2829177,14 L15,14 L15,14.5 C15,14.7680664 15.2240528,15 15.5004358,15 L22.4995642,15 C22.7692032,15 23,14.7761424 23,14.5 C23,14.2319336 22.7759472,14 22.4995642,14 L16.7071068,14 Z" id="UnFull"></path>
            </g>
        </g>
    </g>
</svg>