<?xml version="1.0" encoding="UTF-8" standalone="no"?>
<svg width="1344px" height="1024px" viewBox="0 0 1344 1024" version="1.1" xmlns="http://www.w3.org/2000/svg" xmlns:xlink="http://www.w3.org/1999/xlink">
    <!-- Generator: Sketch 3.8.3 (29802) - http://www.bohemiancoding.com/sketch -->
    <title>Gear Set</title>
    <desc>Created with Sketch.</desc>
    <defs></defs>
    <g id="Tmp-716.8" stroke="none" stroke-width="1" fill="none" fill-rule="evenodd">
        <path d="M118.086131,328.954216 C123.716104,327.603022 131.352395,320.662801 133.563439,314.336758 L144.761968,287.333359 C147.280101,282.153784 146.809231,271.876523 143.799754,266.963092 L99.108003,193.896276 C89.547285,178.214242 91.53313,156.021911 104.389942,141.629652 L142.223362,103.816705 C155.407736,92.106361 178.664643,89.99768 193.814389,99.169418 L266.881205,143.861169 C271.446601,146.686392 281.273464,147.669078 288.152267,144.434403 L315.114721,133.297292 C320.560441,131.41381 327.500662,123.797992 328.831383,118.168019 L348.89456,34.864888 C353.152867,17.217481 370.001841,2.681914 388.120119,1.023631 C388.120119,1.023631 399.216284,5.68434189e-14 415.860532,5.68434189e-14 C432.50478,5.68434189e-14 443.600945,1.023631 443.621418,1.023631 C461.69875,2.661441 478.547725,17.217481 482.806032,34.864888 L502.889682,118.168019 C504.240876,123.757047 511.140152,131.413811 517.466194,133.624855 L544.469593,144.823384 C549.239716,147.157264 560.274463,146.686393 564.83986,143.86117 L637.906676,99.169419 C644.335082,95.238674 652.012318,93.150466 660.180897,93.150466 C671.215644,93.150466 681.902357,97.019793 690.193772,104.410412 L728.006719,142.243832 C740.228879,155.960494 742.214724,178.173297 732.654006,193.834859 L687.962255,266.901675 C684.952778,271.835579 684.481908,282.092366 687.389021,288.172737 L698.526132,315.135191 C700.409614,320.580911 708.025432,327.521132 713.655405,328.851853 L796.958536,348.91503 C814.605943,353.173337 829.14151,370.022311 830.799793,388.140589 C830.799793,388.140589 831.823424,399.236754 831.823424,415.881002 C831.823424,432.52525 830.799793,443.621415 830.799793,443.641888 C829.161983,461.71922 814.605943,478.568195 796.958536,482.867447 L713.69635,502.889679 C708.066377,504.240873 700.430086,511.181094 698.219042,517.507137 L687.020513,544.510536 C684.50238,549.690111 684.97325,559.967372 687.982727,564.880803 L732.674478,637.947619 C742.235196,653.629653 740.249351,675.821984 727.392539,690.214243 L689.559119,728.02719 C676.354273,739.758007 653.05642,741.88716 637.968092,732.674477 L564.901276,687.982726 C560.33588,685.198448 550.468072,684.133872 543.630214,687.409492 L516.66776,698.546603 C511.22204,700.430085 504.322764,708.045903 502.971571,713.675876 L482.887921,796.979007 C478.629614,814.646887 461.78064,829.161981 443.662362,830.820264 C443.600944,830.779319 432.504779,831.80295 415.860531,831.80295 C399.216283,831.80295 388.120118,830.779319 388.099645,830.779319 C370.022313,829.141509 353.173338,814.585469 348.874086,796.938062 L328.851854,713.696349 C327.50066,708.066376 320.560439,700.430085 314.234396,698.219041 L287.230997,687.020512 C282.440402,684.686632 271.426127,685.198448 266.86073,687.982726 L193.834859,732.674477 C178.705586,741.88716 155.919549,740.290295 141.568235,727.433484 L103.755288,689.600064 C91.533128,675.883402 89.547283,653.670599 99.108001,638.009037 L143.799752,564.942221 C146.809229,560.008317 147.280099,549.75153 144.372986,543.671159 L133.235875,516.708705 C131.352393,511.262985 123.736575,504.322764 118.106602,502.992043 L34.803471,482.928866 C17.135591,478.670559 2.620497,461.821585 0.962214,443.703307 C1.023632,443.703307 -5.68434189e-14,432.607142 -5.68434189e-14,415.962894 C-5.68434189e-14,399.318646 1.023631,388.222481 1.023631,388.202008 C2.661441,370.124676 17.217481,353.275701 34.864888,348.976449 L118.106601,328.954217 L118.086131,328.954216 Z M31.978249,415.962893 C31.978249,430.621296 32.838099,440.489104 32.879045,440.816666 C33.268025,445.136391 38.160984,450.807309 42.357873,451.830941 L125.661004,471.894118 C141.813909,475.80439 158.08965,490.565156 163.146389,505.38734 L173.50554,530.568675 C180.793796,545.513695 179.770165,567.460354 171.110242,581.647886 L126.418491,654.673757 C124.268865,658.215522 124.883044,665.258107 126.991725,667.653404 L163.494424,704.176576 C166.401537,706.7766 173.833102,707.411252 177.149668,705.384461 L250.216484,660.69271 C264.076454,652.217041 287.804232,651.643808 300.374427,657.88796 L325.576234,668.308529 C341.278741,673.713303 356.05998,689.989044 359.970252,706.182894 L379.992484,789.44508 C381.016115,793.662442 386.687034,798.5554 390.986286,798.94438 C391.313848,798.94438 401.181656,799.80423 415.840059,799.80423 C430.498462,799.80423 440.36627,798.94438 440.693832,798.903434 C445.013557,798.514454 450.664003,793.621495 451.687634,789.424606 L471.750811,706.16242 C475.661083,690.009515 490.401377,673.692829 505.244033,668.636089 L530.425368,658.276938 C545.042826,651.111518 567.685554,652.237512 581.504579,660.672236 L654.53045,705.363987 C657.847016,707.370305 665.728979,706.326201 667.510097,704.790753 L704.033269,668.288054 C706.776601,665.176214 707.39078,658.174575 705.241154,654.63281 L660.549403,581.565994 C651.889481,567.398934 650.865849,545.41133 657.72418,531.408051 L668.144749,506.206244 C673.549523,490.503737 689.825264,475.722498 706.019114,471.812226 L789.2813,451.789994 C793.498662,450.766363 798.39162,445.095444 798.7806,440.775719 C798.7806,440.448157 799.64045,430.580349 799.64045,415.921946 C799.64045,401.263543 798.7806,391.395735 798.739654,391.068173 C798.350674,386.748448 793.457715,381.07753 789.281299,380.053898 L705.978168,359.990721 C689.825263,356.080449 673.549522,341.29921 668.492783,326.497499 L658.133632,301.316164 C650.845376,286.371144 651.869007,264.424485 660.52893,250.236953 L705.220681,177.211082 C707.370307,173.669317 706.756128,166.626732 704.647447,164.231435 L668.144748,127.708263 C666.425047,126.172816 663.292735,125.19013 660.119477,125.19013 C657.908433,125.19013 655.86117,125.661 654.530449,126.500378 L581.463633,171.192129 C567.644608,179.647325 543.91683,180.241031 531.30569,174.017352 L506.103883,163.596783 C490.401376,158.192009 475.620137,141.875323 471.75081,125.722418 L451.687633,42.460232 C450.664002,38.24287 444.993083,33.349912 440.673358,32.960932 C440.325323,32.960932 430.437043,32.101082 415.77864,32.101082 C401.120237,32.101082 391.252429,32.960932 390.924867,33.001878 C386.605142,33.390858 380.934224,38.283817 379.910592,42.460233 L359.847415,125.763364 C355.937143,141.916269 341.176377,158.19201 326.354193,163.248749 L301.172858,173.6079 C294.642089,176.80163 286.739654,178.480386 278.30493,178.480386 C267.781998,178.480386 257.770882,175.880362 250.093646,171.19213 L177.067775,126.500379 C173.730736,124.494061 165.848774,125.579111 164.088128,127.073613 L127.564956,163.596785 C124.821624,166.708625 124.207445,173.710264 126.357071,177.252029 L171.048822,250.318845 C179.708744,264.485905 180.732376,286.473509 173.874045,300.476788 L163.453476,325.678595 C158.048702,341.381102 141.772961,356.162341 125.579111,360.072613 L42.316925,380.094845 C38.099563,381.118476 33.206605,386.789395 32.817625,391.10912 C32.817625,391.436682 31.957775,401.30449 31.957775,415.962893 L31.978249,415.962893 Z M415.840059,240.041585 C512.859852,240.041585 591.78184,318.963573 591.78184,415.983366 C591.78184,513.003159 512.859852,591.925147 415.840059,591.925147 C318.820266,591.925147 239.898278,513.003159 239.898278,415.983366 C239.898278,318.963573 318.820266,240.041585 415.840059,240.041585 L415.840059,240.041585 Z M415.840059,559.926426 C495.212445,559.926426 559.783119,495.335279 559.783119,415.983366 C559.783119,336.631453 495.191972,272.040306 415.840059,272.040306 C336.488146,272.040306 271.896999,336.631453 271.896999,415.983366 C271.896999,495.335279 336.488146,559.926426 415.840059,559.926426 L415.840059,559.926426 Z M878.930946,853.770083 C877.661643,851.825183 873.014356,849.347995 870.639531,849.347995 L811.105123,849.921229 C796.651446,849.921229 782.156824,839.643969 777.427647,826.050143 C777.427647,826.050143 774.80715,818.598106 771.92051,807.174378 C769.03387,795.75065 767.825984,787.950579 767.825984,787.950579 C765.594467,773.517375 773.619738,757.569196 786.517495,750.813228 L839.009318,723.298013 C841.015636,722.233436 844.00464,717.790876 844.311729,714.5562 L847.28026,694.247351 C847.75113,692.015834 846.215683,686.897677 844.598345,685.300812 L802.301892,643.843737 C791.717542,633.484586 788.933265,615.755289 796.221521,601.833901 L815.383903,569.835181 C823.470592,557.940583 841.015636,551.860212 854.75277,556.138992 L913.099765,573.991125 C916.273023,573.991125 919.425808,572.78324 921.227399,571.329683 L937.707866,559.168941 C939.632293,557.879165 942.150427,553.190933 942.129954,550.877526 L941.55672,491.629735 C941.433884,477.053223 951.670199,462.415292 965.427806,457.624697 C965.427806,457.624697 972.879843,455.0042 984.303571,452.11756 C995.727299,449.23092 1003.52737,448.023034 1003.52737,448.023034 C1004.36675,447.900198 1007.68331,447.634054 1008.52269,447.634054 C1021.58423,447.634054 1034.80955,455.475071 1040.66472,466.694072 L1068.17994,519.185895 C1069.24451,521.192213 1073.68707,524.181217 1076.92175,524.488306 L1098.13139,527.5592 C1101.32512,527.5592 1105.11256,525.900917 1106.15666,524.815868 L1147.61374,482.519415 C1157.68627,472.221682 1174.67856,468.536609 1189.62358,476.439044 L1221.58135,495.601426 C1233.80351,503.913314 1239.7201,520.864651 1235.29801,534.970293 L1217.65061,591.495224 C1216.97501,593.665323 1218.03959,598.926789 1220.14827,601.444922 L1232.30901,617.925389 C1233.59879,619.870289 1238.2256,622.347477 1240.60042,622.347477 L1300.13483,621.774243 C1314.58851,621.774243 1329.08313,632.051503 1333.81231,645.645329 C1333.81231,645.645329 1336.4328,653.097366 1339.31945,664.521094 C1342.20609,675.944822 1343.41397,683.744893 1343.41397,683.744893 C1345.64549,698.178097 1337.62022,714.126276 1324.72246,720.882244 L1272.23064,748.397459 C1270.22432,749.462036 1267.23531,753.904596 1266.92823,757.139272 L1263.98017,777.386703 C1263.5093,779.61822 1265.04474,784.736377 1266.66208,786.353715 L1308.95853,827.81079 C1319.54288,838.169941 1322.32716,855.899238 1315.03891,869.820626 L1295.87652,901.819346 C1287.78984,913.693471 1270.28574,919.83526 1256.50766,915.536008 L1198.11972,897.683875 C1194.94646,897.683875 1191.79367,898.89176 1189.99208,900.345317 L1173.51162,912.506059 C1171.58719,913.795835 1169.06905,918.484067 1169.08953,920.797474 L1169.66276,980.045265 C1169.7856,994.621777 1159.54928,1009.25971 1145.79168,1014.0503 C1145.79168,1014.0503 1138.33964,1016.6708 1126.91591,1019.55744 C1115.49218,1022.44408 1107.69211,1023.65197 1107.69211,1023.65197 C1106.85273,1023.75433 1103.53617,1024 1102.69679,1024 C1089.63525,1024 1076.40993,1016.15898 1070.55476,1004.93998 L1043.03955,952.44816 C1041.97497,950.441842 1037.53241,947.452838 1034.29773,947.145749 L1013.08809,944.1158 C1009.89436,944.1158 1006.10692,945.774083 1005.06282,946.859132 L963.605742,989.155585 C953.553681,999.432845 936.602343,1003.13839 921.595906,995.235956 L889.597186,976.11452 C877.375026,967.802632 871.458436,950.851295 875.880524,936.745653 L893.527931,880.220722 C894.203528,878.050623 893.138951,872.789157 891.03027,870.271024 L878.910473,853.790557 L878.930946,853.770083 Z M905.156385,835.467552 L916.129715,850.371627 C924.707747,860.505579 928.024313,877.047464 924.073095,889.679076 L906.446161,946.163062 C906.28238,947.063858 906.998922,949.070175 906.835141,949.111121 L937.155106,967.290816 L940.778761,966.738055 L982.276782,924.441602 C989.626456,916.948619 1001.76673,912.096606 1013.14951,912.096606 C1015.77,912.096606 1018.30861,912.36275 1019.68028,912.710785 L1038.0647,915.433645 C1051.24907,916.580112 1065.2933,925.936104 1071.43509,937.625976 L1098.90935,990.097326 C1099.42117,990.895759 1101.42749,992.042226 1102.73774,992.042226 C1103.08577,992.001281 1109.61654,990.916231 1119.15679,988.561879 C1128.65609,986.166581 1134.92071,984.016955 1135.20733,983.894119 C1136.19001,983.484666 1137.64357,981.396458 1137.70499,980.372827 L1137.13175,921.125036 C1137.00892,907.879244 1144.97277,893.016115 1155.2705,886.28062 L1170.15411,875.30729 C1180.04239,866.954457 1196.99373,863.433165 1209.46156,867.36391 L1266.21169,885.03179 C1267.56288,885.03179 1269.05738,884.192412 1268.87313,884.622337 L1287.03235,854.302372 C1287.38039,853.462994 1287.03235,851.354313 1286.47959,850.678717 L1244.18314,809.180696 C1234.74526,799.865649 1229.8523,783.75369 1232.45232,771.777201 L1235.13424,753.392779 C1236.2807,740.208405 1245.63669,726.164181 1257.36751,720.022392 L1309.83886,692.548123 C1310.73966,691.974889 1311.84518,689.743373 1311.78376,688.699269 C1311.74282,688.351234 1310.65777,681.820465 1308.30341,672.28022 C1305.90812,662.78092 1303.75849,656.516295 1303.63565,656.229678 C1303.2262,655.246992 1301.13799,653.793435 1300.11436,653.732017 L1240.55948,654.305251 C1227.41605,654.305251 1212.69623,646.341398 1206.04263,636.166501 L1195.11024,621.282899 C1186.53221,611.148947 1183.21565,594.607062 1187.18734,581.97545 L1204.81427,525.491464 C1204.97805,524.631614 1204.26151,522.584351 1204.42529,522.543405 L1174.10533,504.36371 L1170.48167,504.916471 L1128.98365,547.212924 C1121.63398,554.705907 1109.49371,559.55792 1098.11092,559.55792 C1095.49043,559.55792 1092.95182,559.312248 1091.58015,558.943741 L1073.19573,556.220881 C1060.01136,555.074414 1045.96713,545.738895 1039.82535,534.02855 L1012.35108,481.5572 C1011.83926,480.758767 1009.83294,479.6123 1008.50222,479.6123 L1008.50222,479.6123 C1008.15419,479.653245 1001.62342,480.738295 992.083173,483.092647 C982.583873,485.487945 976.319248,487.637571 976.032631,487.760407 C975.049945,488.16986 973.596388,490.258068 973.53497,491.281699 L974.108204,550.52949 C974.23104,563.775282 966.267187,578.638411 955.969454,585.373906 L941.085852,596.347236 C933.981849,602.366189 923.520336,605.948899 913.099767,605.948899 C909.066659,605.948899 905.238277,605.375665 901.737457,604.290616 L844.987327,586.643209 C843.615661,586.643209 842.100686,587.380224 842.325885,587.052662 L824.14619,617.372627 C823.798155,618.212005 824.14619,620.320686 824.698951,620.996282 L866.995404,662.494303 C876.433286,671.80935 881.326245,687.921309 878.726221,699.897798 L876.044306,718.261747 C874.897839,731.446121 865.56232,745.490345 853.81103,751.632134 L801.33968,779.106403 C800.438884,779.679637 799.333362,781.911153 799.39478,782.955257 C799.435725,783.303292 800.520775,789.834061 802.875127,799.374306 C805.270425,808.873606 807.420051,815.138231 807.542887,815.424848 C807.95234,816.407534 810.040548,817.861091 811.064179,817.922509 L870.619059,817.349275 C883.762487,817.349275 898.482308,825.313128 905.135913,835.488025 L905.156385,835.467552 Z M1055.60974,639.892519 C1108.51102,639.892519 1151.58543,682.94646 1151.58543,735.868208 C1151.58543,788.789956 1108.53149,831.843897 1055.60974,831.843897 C1002.68799,831.843897 959.634053,788.789956 959.634053,735.868208 C959.634053,682.94646 1002.68799,639.892519 1055.60974,639.892519 L1055.60974,639.892519 Z M1055.60974,799.824703 C1090.88408,799.824703 1119.58671,771.122076 1119.58671,735.847735 C1119.58671,700.573394 1090.88408,671.870767 1055.60974,671.870767 C1020.3354,671.870767 991.632774,700.573394 991.632774,735.847735 C991.632774,771.122076 1020.3354,799.824703 1055.60974,799.824703 L1055.60974,799.824703 Z" id="Gear-Set" fill="#272636" transform="translate(671.892671, 512.000001) scale(1, -1) translate(-671.892671, -512.000001) "></path>
    </g>
</svg>